<svg width="183" height="49" viewBox="0 0 183 49" fill="none" xmlns="http://www.w3.org/2000/svg">
<g filter="url(#filter0_i_204_66)">
<path d="M65.9949 24.3986C65.9949 25.0137 65.9552 25.5693 65.8758 26.0653H53.3458C53.4451 27.3749 53.9312 28.4265 54.8042 29.2202C55.6772 30.0138 56.7487 30.4107 58.0186 30.4107C59.844 30.4107 61.1337 29.6468 61.8877 28.119H65.5485C65.0524 29.6269 64.1496 30.867 62.8401 31.8393C61.5504 32.7917 59.9432 33.2679 58.0186 33.2679C56.4511 33.2679 55.0423 32.9206 53.7923 32.2262C52.5621 31.5119 51.5899 30.5198 50.8756 29.2499C50.1811 27.9602 49.8339 26.4721 49.8339 24.7856C49.8339 23.099 50.1712 21.6208 50.8458 20.3509C51.5403 19.0612 52.5026 18.0692 53.7328 17.3747C54.9828 16.6802 56.4114 16.333 58.0186 16.333C59.5662 16.333 60.9452 16.6703 62.1555 17.3449C63.3659 18.0196 64.3084 18.972 64.983 20.2021C65.6576 21.4125 65.9949 22.8113 65.9949 24.3986ZM62.4532 23.3272C62.4333 22.0772 61.9869 21.0752 61.1139 20.3212C60.2408 19.5672 59.1595 19.1902 57.8697 19.1902C56.6991 19.1902 55.6971 19.5672 54.8637 20.3212C54.0304 21.0553 53.5343 22.0573 53.3756 23.3272H62.4532ZM79.096 16.333C80.3857 16.333 81.5365 16.6009 82.5484 17.1366C83.5802 17.6723 84.3838 18.466 84.9592 19.5176C85.5346 20.5692 85.8223 21.8391 85.8223 23.3272V33H82.4591V23.8332C82.4591 22.3649 82.0921 21.2438 81.3579 20.47C80.6238 19.6763 79.6218 19.2795 78.3519 19.2795C77.082 19.2795 76.0701 19.6763 75.3161 20.47C74.582 21.2438 74.2149 22.3649 74.2149 23.8332V33H70.822V16.6009H74.2149V18.4759C74.7705 17.8013 75.4749 17.2755 76.3281 16.8985C77.2011 16.5215 78.1237 16.333 79.096 16.333ZM99.7267 22.6129C99.7267 20.589 100.193 18.7735 101.126 17.1664C102.078 15.5592 103.358 14.3092 104.965 13.4163C106.592 12.5036 108.368 12.0472 110.292 12.0472C112.495 12.0472 114.449 12.5929 116.156 13.6842C117.882 14.7556 119.132 16.2834 119.906 18.2676H115.828C115.292 17.1763 114.548 16.3628 113.596 15.8271C112.644 15.2913 111.542 15.0235 110.292 15.0235C108.923 15.0235 107.703 15.331 106.632 15.9461C105.56 16.5612 104.717 17.4441 104.102 18.595C103.507 19.7458 103.209 21.0851 103.209 22.6129C103.209 24.1407 103.507 25.48 104.102 26.6308C104.717 27.7816 105.56 28.6745 106.632 29.3095C107.703 29.9245 108.923 30.2321 110.292 30.2321C111.542 30.2321 112.644 29.9642 113.596 29.4285C114.548 28.8928 115.292 28.0793 115.828 26.988H119.906C119.132 28.9721 117.882 30.5 116.156 31.5714C114.449 32.6429 112.495 33.1786 110.292 33.1786C108.348 33.1786 106.572 32.7321 104.965 31.8393C103.358 30.9265 102.078 29.6666 101.126 28.0594C100.193 26.4523 99.7267 24.6367 99.7267 22.6129ZM124.234 24.726C124.234 23.0792 124.572 21.6208 125.246 20.3509C125.941 19.0811 126.873 18.0989 128.044 17.4045C129.234 16.6902 130.544 16.333 131.972 16.333C133.262 16.333 134.383 16.591 135.336 17.1068C136.308 17.6029 137.082 18.2279 137.657 18.9819V16.6009H141.08V33H137.657V30.5595C137.082 31.3333 136.298 31.9782 135.306 32.494C134.314 33.0099 133.183 33.2679 131.913 33.2679C130.504 33.2679 129.214 32.9107 128.044 32.1964C126.873 31.4623 125.941 30.4503 125.246 29.1606C124.572 27.8511 124.234 26.3729 124.234 24.726ZM137.657 24.7856C137.657 23.6546 137.419 22.6724 136.943 21.8391C136.486 21.0057 135.881 20.3708 135.127 19.9343C134.373 19.4978 133.56 19.2795 132.687 19.2795C131.814 19.2795 131 19.4978 130.246 19.9343C129.492 20.3509 128.877 20.976 128.401 21.8093C127.945 22.6228 127.716 23.5951 127.716 24.726C127.716 25.857 127.945 26.8491 128.401 27.7023C128.877 28.5555 129.492 29.2102 130.246 29.6666C131.02 30.1031 131.834 30.3214 132.687 30.3214C133.56 30.3214 134.373 30.1031 135.127 29.6666C135.881 29.2301 136.486 28.5952 136.943 27.7618C137.419 26.9086 137.657 25.9165 137.657 24.7856ZM152.977 33.2679C151.687 33.2679 150.526 33.0397 149.495 32.5833C148.483 32.1071 147.679 31.4722 147.084 30.6785C146.489 29.865 146.171 28.9622 146.132 27.9701H149.643C149.703 28.6646 150.03 29.2499 150.626 29.7261C151.241 30.1825 152.005 30.4107 152.917 30.4107C153.87 30.4107 154.604 30.2321 155.12 29.8749C155.656 29.4979 155.923 29.0217 155.923 28.4463C155.923 27.8313 155.626 27.3749 155.03 27.0773C154.455 26.7796 153.532 26.4523 152.263 26.0951C151.032 25.7578 150.03 25.4304 149.257 25.1129C148.483 24.7955 147.808 24.3094 147.233 23.6546C146.677 22.9998 146.399 22.1367 146.399 21.0652C146.399 20.1922 146.657 19.3986 147.173 18.6843C147.689 17.9501 148.423 17.3747 149.376 16.958C150.348 16.5414 151.459 16.333 152.709 16.333C154.574 16.333 156.072 16.8092 157.203 17.7616C158.354 18.6942 158.969 19.974 159.048 21.601H155.656C155.596 20.8668 155.298 20.2815 154.763 19.845C154.227 19.4085 153.503 19.1902 152.59 19.1902C151.697 19.1902 151.013 19.3589 150.536 19.6962C150.06 20.0335 149.822 20.4799 149.822 21.0355C149.822 21.472 149.981 21.8391 150.298 22.1367C150.616 22.4343 151.003 22.6724 151.459 22.851C151.915 23.0097 152.59 23.2181 153.483 23.476C154.673 23.7935 155.646 24.1209 156.4 24.4582C157.173 24.7756 157.838 25.2518 158.394 25.8868C158.949 26.5217 159.237 27.365 159.257 28.4166C159.257 29.3491 158.999 30.1825 158.483 30.9166C157.967 31.6508 157.233 32.2262 156.281 32.6429C155.348 33.0595 154.247 33.2679 152.977 33.2679ZM163.28 24.726C163.28 23.0792 163.617 21.6208 164.292 20.3509C164.986 19.0811 165.919 18.0989 167.09 17.4045C168.28 16.6902 169.59 16.333 171.018 16.333C172.308 16.333 173.429 16.591 174.381 17.1068C175.354 17.6029 176.128 18.2279 176.703 18.9819V16.6009H180.126V33H176.703V30.5595C176.128 31.3333 175.344 31.9782 174.352 32.494C173.36 33.0099 172.229 33.2679 170.959 33.2679C169.55 33.2679 168.26 32.9107 167.09 32.1964C165.919 31.4623 164.986 30.4503 164.292 29.1606C163.617 27.8511 163.28 26.3729 163.28 24.726ZM176.703 24.7856C176.703 23.6546 176.465 22.6724 175.989 21.8391C175.532 21.0057 174.927 20.3708 174.173 19.9343C173.419 19.4978 172.606 19.2795 171.733 19.2795C170.86 19.2795 170.046 19.4978 169.292 19.9343C168.538 20.3509 167.923 20.976 167.447 21.8093C166.99 22.6228 166.762 23.5951 166.762 24.726C166.762 25.857 166.99 26.8491 167.447 27.7023C167.923 28.5555 168.538 29.2102 169.292 29.6666C170.066 30.1031 170.879 30.3214 171.733 30.3214C172.606 30.3214 173.419 30.1031 174.173 29.6666C174.927 29.2301 175.532 28.5952 175.989 27.7618C176.465 26.9086 176.703 25.9165 176.703 24.7856Z" fill="#AFC1C2"/>
</g>
<g filter="url(#filter1_d_204_66)">
<path d="M38.7926 12.3801C36.7752 9.10852 33.7644 6.58462 30.2102 5.18563C26.6561 3.78664 22.7495 3.58769 19.0742 4.61852C15.399 5.64934 12.1524 7.85459 9.81984 10.9047C7.48723 13.9548 6.1938 17.6859 6.13287 21.5405C6.07194 25.395 7.24677 29.166 9.48178 32.2899C11.7168 35.4137 14.892 37.7227 18.5328 38.8716C22.1736 40.0206 26.0845 39.9479 29.681 38.6644C33.2775 37.3809 36.3666 34.9555 38.4864 31.7507" stroke="#43656D" stroke-width="5.37547"/>
<path d="M36.2424 27.3915L22.5946 20.3369L22.5946 14.1641L36.2424 21.2187L36.2424 27.3915Z" fill="#AFC1C2"/>
<path d="M6.62415 29.8715L22.5946 20.3371L22.5946 14.1644L4.04771 25.2584L6.62415 29.8715Z" fill="#43656D"/>
</g>
<defs>
<filter id="filter0_i_204_66" x="49.834" y="12.0471" width="130.292" height="23.2049" filterUnits="userSpaceOnUse" color-interpolation-filters="sRGB">
<feFlood flood-opacity="0" result="BackgroundImageFix"/>
<feBlend mode="normal" in="SourceGraphic" in2="BackgroundImageFix" result="shape"/>
<feColorMatrix in="SourceAlpha" type="matrix" values="0 0 0 0 0 0 0 0 0 0 0 0 0 0 0 0 0 0 127 0" result="hardAlpha"/>
<feOffset dy="1.98416"/>
<feGaussianBlur stdDeviation="2.48021"/>
<feComposite in2="hardAlpha" operator="arithmetic" k2="-1" k3="1"/>
<feColorMatrix type="matrix" values="0 0 0 0 0.262745 0 0 0 0 0.396078 0 0 0 0 0.427451 0 0 0 1 0"/>
<feBlend mode="normal" in2="shape" result="effect1_innerShadow_204_66"/>
</filter>
<filter id="filter1_d_204_66" x="0.217591" y="0.563789" width="44.088" height="47.5409" filterUnits="userSpaceOnUse" color-interpolation-filters="sRGB">
<feFlood flood-opacity="0" result="BackgroundImageFix"/>
<feColorMatrix in="SourceAlpha" type="matrix" values="0 0 0 0 0 0 0 0 0 0 0 0 0 0 0 0 0 0 127 0" result="hardAlpha"/>
<feOffset dy="2.50855"/>
<feGaussianBlur stdDeviation="1.61264"/>
<feComposite in2="hardAlpha" operator="out"/>
<feColorMatrix type="matrix" values="0 0 0 0 0 0 0 0 0 0 0 0 0 0 0 0 0 0 0.25 0"/>
<feBlend mode="normal" in2="BackgroundImageFix" result="effect1_dropShadow_204_66"/>
<feBlend mode="normal" in="SourceGraphic" in2="effect1_dropShadow_204_66" result="shape"/>
</filter>
</defs>
</svg>
